# xmcd
# 
# Track frame offsets:
#     150
#     16064
#     28735
#     44787
#     65340
#     82604
#     101272
#     114834
#     136372
#     148009
#     160322
#     174625
#     195401
#     215101
#     238194
# 
# Disc length: 3362
# 
# Revision: 5
# Processed by: cddbd v1.5.2PL0 Copyright (c) Steve Scherf et al.
# Submitted via: fre:ac v1.0.31
# 
DISCID=c90d200f
DTITLE=Various Artist - All*Star Bluegrass Celebration
DYEAR=2002
DGENRE=Bluegrass
TTITLE0=Ricky Skaggs - Shady Grove
TTITLE1=Vince Gill and The Del McCoury Band - Crying Holy (Unto The Lord)
TTITLE2=Alison Krauss And Union Station featuring Jerry Douglas - Let Me Touch You for Awhile
TTITLE3=The Del McCoury Band - 1952 Vincent Black Lighting
TTITLE4=The Del McCoury Band - Get Down In Your Knees And Pray
TTITLE5=Earl Scruggs - Foggy Mountain Breakdown
TTITLE6=Patty Loveless With Ricky Skaggs - Daniel Prayed
TTITLE7=Ralph Stanley Wiht Patty Loveless - Pretty Polly
TTITLE8=Ralph Stanley - O Death
TTITLE9=Ricky Skaggs With Travis Tritt And Patty Loveless - Uncle Pen
TTITLE10=Travis Tritt With Ricky Skaggs - Little Georgia Rose
TTITLE11=Bruce Hornsby With Ricky Skaggs - Darlin' Corey
TTITLE12=Nickel Creek - Seven Wonders
TTITLE13=Group Finale - Lonesome Reuben
TTITLE14=Group Finale - Rawhide
EXTD=
EXTT0=
EXTT1=
EXTT2=
EXTT3=
EXTT4=
EXTT5=
EXTT6=
EXTT7=
EXTT8=
EXTT9=
EXTT10=
EXTT11=
EXTT12=
EXTT13=
EXTT14=
PLAYORDER=
